999
dxfrw 0.5.10
0
SECTION
2
HEADER
9
$ACADVER
1
AC1021
9
$HANDSEED
5
20000
9
$DWGCODEPAGE
3
ANSI_1252
9
$INSBASE
10
0
20
0
30
0
9
$EXTMIN
10
0
20
0
30
0
9
$EXTMAX
10
100
20
130
30
0
9
$LIMMIN
10
0
20
0
9
$LIMMAX
10
420
20
297
9
$ORTHOMODE
70
0
9
$LTSCALE
40
1
9
$TEXTSTYLE
7
STANDARD
9
$CLAYER
8
0
9
$DIMASZ
40
2.5
9
$DIMLFAC
40
1
9
$DIMSCALE
40
1
9
$DIMEXO
40
0.625
9
$DIMEXE
40
1.25
9
$DIMTXT
40
2.5
9
$DIMTSZ
40
0
9
$DIMAUNIT
70
0
9
$DIMADEC
70
0
9
$DIMLUNIT
70
2
9
$DIMSTYLE
2
Standard
9
$DIMGAP
40
0.625
9
$DIMTIH
70
0
9
$LUNITS
70
2
9
$LUPREC
70
4
9
$AUNITS
70
0
9
$AUPREC
70
2
9
$SPLINESEGS
70
8
9
$SNAPSTYLE
70
0
9
$PINSBASE
10
0
20
0
30
0
9
$PLIMMIN
10
0
20
0
9
$PLIMMAX
10
210
20
297
9
$INSUNITS
70
4
9
$PSVPSCALE
40
1
0
ENDSEC
0
SECTION
2
CLASSES
0
ENDSEC
0
SECTION
2
TABLES
0
TABLE
2
VPORT
5
8
330
0
100
AcDbSymbolTable
70
1
0
VPORT
5
31
330
2
100
AcDbSymbolTableRecord
100
AcDbViewportTableRecord
2
*ACTIVE
70
0
10
0
20
0
11
1
21
1
12
149.841308594
22
111.999511719
13
0
23
0
14
10
24
10
15
10
25
10
16
0
26
0
36
1
17
0
27
0
37
0
40
290.52734375
41
2.00420168067
42
50
43
0
44
0
50
0
51
0
71
0
72
100
73
1
74
3
75
0
76
1
77
0
78
0
281
0
65
1
110
0
120
0
130
0
111
1
121
0
131
0
112
0
122
1
132
0
79
0
146
0
348
10020
60
7
61
5
292
1
282
1
141
0
142
0
63
250
421
3358443
0
ENDTAB
0
TABLE
2
LTYPE
5
5
330
0
100
AcDbSymbolTable
70
4
0
LTYPE
5
14
330
5
100
AcDbSymbolTableRecord
100
AcDbLinetypeTableRecord
2
ByBlock
70
0
3

72
65
73
0
40
0
0
LTYPE
5
15
330
5
100
AcDbSymbolTableRecord
100
AcDbLinetypeTableRecord
2
ByLayer
70
0
3

72
65
73
0
40
0
0
LTYPE
5
16
330
5
100
AcDbSymbolTableRecord
100
AcDbLinetypeTableRecord
2
Continuous
70
0
3
Solid line
72
65
73
0
40
0
0
LTYPE
5
32
330
5
100
AcDbSymbolTableRecord
100
AcDbLinetypeTableRecord
2
DOT
70
0
3
Dot . . . . . . . . . . . . . . . . . . . . . .
72
65
73
2
40
6.35
49
0
74
0
49
-6.35
74
0
0
LTYPE
5
33
330
5
100
AcDbSymbolTableRecord
100
AcDbLinetypeTableRecord
2
DOT2
70
0
3
Dot (.5x) .....................................
72
65
73
2
40
3.175
49
0
74
0
49
-3.175
74
0
0
LTYPE
5
34
330
5
100
AcDbSymbolTableRecord
100
AcDbLinetypeTableRecord
2
DOTX2
70
0
3
Dot (2x) .  .  .  .  .  .  .  .  .  .  .  .  .
72
65
73
2
40
12.7
49
0
74
0
49
-12.7
74
0
0
LTYPE
5
35
330
5
100
AcDbSymbolTableRecord
100
AcDbLinetypeTableRecord
2
DASHED
70
0
3
Dot . . . . . . . . . . . . . . . . . . . . . .
72
65
73
2
40
19.05
49
12.7
74
0
49
-6.35
74
0
0
LTYPE
5
36
330
5
100
AcDbSymbolTableRecord
100
AcDbLinetypeTableRecord
2
DASHED2
70
0
3
Dashed (.5x) _ _ _ _ _ _ _ _ _ _ _ _ _ _ _ _ _
72
65
73
2
40
9.525
49
6.35
74
0
49
-3.175
74
0
0
LTYPE
5
37
330
5
100
AcDbSymbolTableRecord
100
AcDbLinetypeTableRecord
2
DASHEDX2
70
0
3
Dashed (2x) ____  ____  ____  ____  ____  ___
72
65
73
2
40
38.1
49
25.4
74
0
49
-12.7
74
0
0
LTYPE
5
38
330
5
100
AcDbSymbolTableRecord
100
AcDbLinetypeTableRecord
2
DASHDOT
70
0
3
Dash dot __ . __ . __ . __ . __ . __ . __ . __
72
65
73
4
40
25.4
49
12.7
74
0
49
-6.35
74
0
49
0
74
0
49
-6.35
74
0
0
LTYPE
5
39
330
5
100
AcDbSymbolTableRecord
100
AcDbLinetypeTableRecord
2
DASHDOT2
70
0
3
Dash dot (.5x) _._._._._._._._._._._._._._._.
72
65
73
4
40
12.7
49
6.35
74
0
49
-3.175
74
0
49
0
74
0
49
-3.175
74
0
0
LTYPE
5
3A
330
5
100
AcDbSymbolTableRecord
100
AcDbLinetypeTableRecord
2
DASHDOTX2
70
0
3
Dash dot (2x) ____  .  ____  .  ____  .  ___
72
65
73
4
40
50.8
49
25.4
74
0
49
-12.7
74
0
49
0
74
0
49
-12.7
74
0
0
LTYPE
5
3B
330
5
100
AcDbSymbolTableRecord
100
AcDbLinetypeTableRecord
2
DIVIDE
70
0
3
Divide ____ . . ____ . . ____ . . ____ . . ____
72
65
73
6
40
31.75
49
12.7
74
0
49
-6.35
74
0
49
0
74
0
49
-6.35
74
0
49
0
74
0
49
-6.35
74
0
0
LTYPE
5
3C
330
5
100
AcDbSymbolTableRecord
100
AcDbLinetypeTableRecord
2
DIVIDE2
70
0
3
Divide (.5x) __..__..__..__..__..__..__..__.._
72
65
73
6
40
15.875
49
6.35
74
0
49
-3.175
74
0
49
0
74
0
49
-3.175
74
0
49
0
74
0
49
-3.175
74
0
0
LTYPE
5
3D
330
5
100
AcDbSymbolTableRecord
100
AcDbLinetypeTableRecord
2
DIVIDEX2
70
0
3
Divide (2x) ________  .  .  ________  .  .  _
72
65
73
6
40
63.5
49
25.4
74
0
49
-12.7
74
0
49
0
74
0
49
-12.7
74
0
49
0
74
0
49
-12.7
74
0
0
LTYPE
5
3E
330
5
100
AcDbSymbolTableRecord
100
AcDbLinetypeTableRecord
2
BORDER
70
0
3
Border __ __ . __ __ . __ __ . __ __ . __ __ .
72
65
73
6
40
44.45
49
12.7
74
0
49
-6.35
74
0
49
12.7
74
0
49
-6.35
74
0
49
0
74
0
49
-6.35
74
0
0
LTYPE
5
3F
330
5
100
AcDbSymbolTableRecord
100
AcDbLinetypeTableRecord
2
BORDER2
70
0
3
Border (.5x) __.__.__.__.__.__.__.__.__.__.__.
72
65
73
6
40
22.225
49
6.35
74
0
49
-3.175
74
0
49
6.35
74
0
49
-3.175
74
0
49
0
74
0
49
-3.175
74
0
0
LTYPE
5
40
330
5
100
AcDbSymbolTableRecord
100
AcDbLinetypeTableRecord
2
BORDERX2
70
0
3
Border (2x) ____  ____  .  ____  ____  .  ___
72
65
73
6
40
88.9
49
25.4
74
0
49
-12.7
74
0
49
25.4
74
0
49
-12.7
74
0
49
0
74
0
49
-12.7
74
0
0
LTYPE
5
41
330
5
100
AcDbSymbolTableRecord
100
AcDbLinetypeTableRecord
2
CENTER
70
0
3
Center ____ _ ____ _ ____ _ ____ _ ____ _ ____
72
65
73
4
40
50.8
49
31.75
74
0
49
-6.35
74
0
49
6.35
74
0
49
-6.35
74
0
0
LTYPE
5
42
330
5
100
AcDbSymbolTableRecord
100
AcDbLinetypeTableRecord
2
CENTER2
70
0
3
Center (.5x) ___ _ ___ _ ___ _ ___ _ ___ _ ___
72
65
73
4
40
28.575
49
19.05
74
0
49
-3.175
74
0
49
3.175
74
0
49
-3.175
74
0
0
LTYPE
5
43
330
5
100
AcDbSymbolTableRecord
100
AcDbLinetypeTableRecord
2
CENTERX2
70
0
3
Center (2x) ________  __  ________  __  _____
72
65
73
4
40
101.6
49
63.5
74
0
49
-12.7
74
0
49
12.7
74
0
49
-12.7
74
0
0
ENDTAB
0
TABLE
2
LAYER
5
2
330
0
100
AcDbSymbolTable
70
1
0
LAYER
5
10
330
2
100
AcDbSymbolTableRecord
100
AcDbLayerTableRecord
2
0
70
0
62
7
6
CONTINUOUS
370
-3
390
F
0
ENDTAB
0
TABLE
2
STYLE
5
3
330
0
100
AcDbSymbolTable
70
3
0
STYLE
5
44
330
2
100
AcDbSymbolTableRecord
100
AcDbTextStyleTableRecord
2
Standard
70
0
40
0
41
1
50
0
71
0
42
1
3
txt
4

0
ENDTAB
0
TABLE
2
VIEW
5
6
330
0
100
AcDbSymbolTable
70
0
0
ENDTAB
0
TABLE
2
UCS
5
7
330
0
100
AcDbSymbolTable
70
0
0
ENDTAB
0
TABLE
2
APPID
5
9
330
0
100
AcDbSymbolTable
70
1
0
APPID
5
12
330
9
100
AcDbSymbolTableRecord
100
AcDbRegAppTableRecord
2
ACAD
70
0
0
ENDTAB
0
TABLE
2
DIMSTYLE
5
A
330
0
100
AcDbSymbolTable
70
1
100
AcDbDimStyleTable
71
1
0
DIMSTYLE
105
45
330
A
100
AcDbSymbolTableRecord
100
AcDbDimStyleTableRecord
2
Standard
70
0
40
1
41
2.5
42
0.625
43
0.38
44
1.25
45
0
46
0
47
0
48
0
140
2.5
141
0.09
142
0
143
25.4
144
1
145
0
146
1
147
0.625
148
0
71
0
72
0
73
0
74
1
75
0
76
0
77
0
78
0
79
0
170
0
171
2
172
0
173
0
174
0
175
0
176
0
177
0
178
0
179
0
271
4
272
4
273
2
274
2
275
0
276
0
277
2
278
46
279
0
280
0
281
0
282
0
283
1
284
0
285
0
286
0
288
0
289
3
340
Standard
341

371
-2
372
-2
0
ENDTAB
0
TABLE
2
BLOCK_RECORD
5
1
330
0
100
AcDbSymbolTable
70
2
0
BLOCK_RECORD
5
1F
330
1
100
AcDbSymbolTableRecord
100
AcDbBlockTableRecord
2
*Model_Space
70
0
280
1
281
0
0
BLOCK_RECORD
5
1E
330
1
100
AcDbSymbolTableRecord
100
AcDbBlockTableRecord
2
*Paper_Space
70
0
280
1
281
0
0
BLOCK_RECORD
5
46
330
1
100
AcDbSymbolTableRecord
100
AcDbBlockTableRecord
2
_CLOSEDFILLED
70
0
280
1
281
0
0
BLOCK_RECORD
5
49
330
1
100
AcDbSymbolTableRecord
100
AcDbBlockTableRecord
2
_CLOSEDBLANK
70
0
280
1
281
0
0
BLOCK_RECORD
5
4C
330
1
100
AcDbSymbolTableRecord
100
AcDbBlockTableRecord
2
_CLOSED
70
0
280
1
281
0
0
BLOCK_RECORD
5
4F
330
1
100
AcDbSymbolTableRecord
100
AcDbBlockTableRecord
2
_DOT
70
0
280
1
281
0
0
BLOCK_RECORD
5
52
330
1
100
AcDbSymbolTableRecord
100
AcDbBlockTableRecord
2
_ARCHTICK
70
0
280
1
281
0
0
BLOCK_RECORD
5
55
330
1
100
AcDbSymbolTableRecord
100
AcDbBlockTableRecord
2
_OBLIQUE
70
0
280
1
281
0
0
BLOCK_RECORD
5
58
330
1
100
AcDbSymbolTableRecord
100
AcDbBlockTableRecord
2
_OPEN
70
0
280
1
281
0
0
BLOCK_RECORD
5
5B
330
1
100
AcDbSymbolTableRecord
100
AcDbBlockTableRecord
2
_ORIGIN
70
0
280
1
281
0
0
BLOCK_RECORD
5
5E
330
1
100
AcDbSymbolTableRecord
100
AcDbBlockTableRecord
2
_ORIGIN2
70
0
280
1
281
0
0
BLOCK_RECORD
5
61
330
1
100
AcDbSymbolTableRecord
100
AcDbBlockTableRecord
2
_OPEN90
70
0
280
1
281
0
0
BLOCK_RECORD
5
64
330
1
100
AcDbSymbolTableRecord
100
AcDbBlockTableRecord
2
_OPEN30
70
0
280
1
281
0
0
BLOCK_RECORD
5
67
330
1
100
AcDbSymbolTableRecord
100
AcDbBlockTableRecord
2
_DOTSMALL
70
0
280
1
281
0
0
BLOCK_RECORD
5
6A
330
1
100
AcDbSymbolTableRecord
100
AcDbBlockTableRecord
2
_DOTBLANK
70
0
280
1
281
0
0
BLOCK_RECORD
5
6D
330
1
100
AcDbSymbolTableRecord
100
AcDbBlockTableRecord
2
_SMALL
70
0
280
1
281
0
0
BLOCK_RECORD
5
70
330
1
100
AcDbSymbolTableRecord
100
AcDbBlockTableRecord
2
_BOXBLANK
70
0
280
1
281
0
0
BLOCK_RECORD
5
73
330
1
100
AcDbSymbolTableRecord
100
AcDbBlockTableRecord
2
_BOXFILLED
70
0
280
1
281
0
0
BLOCK_RECORD
5
76
330
1
100
AcDbSymbolTableRecord
100
AcDbBlockTableRecord
2
_DATUMBLANK
70
0
280
1
281
0
0
BLOCK_RECORD
5
79
330
1
100
AcDbSymbolTableRecord
100
AcDbBlockTableRecord
2
_DATUMFILLED
70
0
280
1
281
0
0
BLOCK_RECORD
5
7C
330
1
100
AcDbSymbolTableRecord
100
AcDbBlockTableRecord
2
_INTEGRAL
70
0
280
1
281
0
0
BLOCK_RECORD
5
7F
330
1
100
AcDbSymbolTableRecord
100
AcDbBlockTableRecord
2
_NONE
70
0
280
1
281
0
0
ENDTAB
0
ENDSEC
0
SECTION
2
BLOCKS
0
BLOCK
5
20
330
1F
100
AcDbEntity
8
0
100
AcDbBlockBegin
2
*Model_Space
70
0
10
0
20
0
30
0
3
*Model_Space
1

0
ENDBLK
5
21
330
1F
100
AcDbEntity
8
0
100
AcDbBlockEnd
0
BLOCK
5
1C
330
1B
100
AcDbEntity
8
0
100
AcDbBlockBegin
2
*Paper_Space
70
0
10
0
20
0
30
0
3
*Paper_Space
1

0
ENDBLK
5
1D
330
1F
100
AcDbEntity
8
0
100
AcDbBlockEnd
0
BLOCK
5
47
330
46
100
AcDbEntity
8
0
100
AcDbBlockBegin
2
_CLOSEDFILLED
70
0
10
0
20
0
3
_CLOSEDFILLED
1

0
SOLID
5
82
100
AcDbEntity
8
0
6
ByLayer
62
256
370
-1
100
AcDbTrace
10
-1
20
0.166667
30
0
11
-1
21
-0.166667
31
0
12
0
22
0
32
0
13
0
23
0
33
0
0
ENDBLK
5
48
330
46
100
AcDbEntity
8
0
100
AcDbBlockEnd
0
BLOCK
5
4A
330
49
100
AcDbEntity
8
0
100
AcDbBlockBegin
2
_CLOSEDBLANK
70
0
10
0
20
0
3
_CLOSEDBLANK
1

0
LINE
5
83
100
AcDbEntity
8
0
6
ByLayer
62
256
370
-1
100
AcDbLine
10
-1
20
0.166667
11
0
21
0
0
LINE
5
84
100
AcDbEntity
8
0
6
ByLayer
62
256
370
-1
100
AcDbLine
10
0
20
0
11
-1
21
-0.166667
0
LINE
5
85
100
AcDbEntity
8
0
6
ByLayer
62
256
370
-1
100
AcDbLine
10
-1
20
0.166667
11
-1
21
-0.166667
0
ENDBLK
5
4B
330
49
100
AcDbEntity
8
0
100
AcDbBlockEnd
0
BLOCK
5
4D
330
4C
100
AcDbEntity
8
0
100
AcDbBlockBegin
2
_CLOSED
70
0
10
0
20
0
3
_CLOSED
1

0
LINE
5
86
100
AcDbEntity
8
0
6
ByLayer
62
256
370
-1
100
AcDbLine
10
-1
20
0.166667
11
0
21
0
0
LINE
5
87
100
AcDbEntity
8
0
6
ByLayer
62
256
370
-1
100
AcDbLine
10
0
20
0
11
-1
21
-0.166667
0
LINE
5
88
100
AcDbEntity
8
0
6
ByLayer
62
256
370
-1
100
AcDbLine
10
-1
20
0.166667
11
-1
21
-0.166667
0
LINE
5
89
100
AcDbEntity
8
0
6
ByLayer
62
256
370
-1
100
AcDbLine
10
0
20
0
11
-1
21
0
0
ENDBLK
5
4E
330
4C
100
AcDbEntity
8
0
100
AcDbBlockEnd
0
BLOCK
5
50
330
4F
100
AcDbEntity
8
0
100
AcDbBlockBegin
2
_DOT
70
0
10
0
20
0
3
_DOT
1

0
LWPOLYLINE
5
8A
100
AcDbEntity
8
0
6
ByLayer
62
256
370
-1
100
AcDbPolyline
90
2
70
1
43
0
10
0.25
20
0
42
1
10
-0.25
20
4.5924254968e-17
42
1
0
LINE
5
8B
100
AcDbEntity
8
0
6
ByLayer
62
256
370
-1
100
AcDbLine
10
-0.5
20
0
11
-1
21
0
0
ENDBLK
5
51
330
4F
100
AcDbEntity
8
0
100
AcDbBlockEnd
0
BLOCK
5
53
330
52
100
AcDbEntity
8
0
100
AcDbBlockBegin
2
_ARCHTICK
70
0
10
0
20
0
3
_ARCHTICK
1

0
LWPOLYLINE
5
8C
100
AcDbEntity
8
0
6
ByLayer
62
256
370
-1
100
AcDbPolyline
90
2
70
0
43
0
10
0.5
20
0.5
10
-0.5
20
-0.5
0
ENDBLK
5
54
330
52
100
AcDbEntity
8
0
100
AcDbBlockEnd
0
BLOCK
5
56
330
55
100
AcDbEntity
8
0
100
AcDbBlockBegin
2
_OBLIQUE
70
0
10
0
20
0
3
_OBLIQUE
1

0
LINE
5
8D
100
AcDbEntity
8
0
6
ByLayer
62
256
370
-1
100
AcDbLine
10
-0.5
20
-0.5
11
0.5
21
0.5
0
ENDBLK
5
57
330
55
100
AcDbEntity
8
0
100
AcDbBlockEnd
0
BLOCK
5
59
330
58
100
AcDbEntity
8
0
100
AcDbBlockBegin
2
_OPEN
70
0
10
0
20
0
3
_OPEN
1

0
LINE
5
8E
100
AcDbEntity
8
0
6
ByLayer
62
256
370
-1
100
AcDbLine
10
-1
20
0.166667
11
0
21
0
0
LINE
5
8F
100
AcDbEntity
8
0
6
ByLayer
62
256
370
-1
100
AcDbLine
10
-1
20
-0.166667
11
0
21
0
0
LINE
5
90
100
AcDbEntity
8
0
6
ByLayer
62
256
370
-1
100
AcDbLine
10
0
20
0
11
-1
21
0
0
ENDBLK
5
5A
330
58
100
AcDbEntity
8
0
100
AcDbBlockEnd
0
BLOCK
5
5C
330
5B
100
AcDbEntity
8
0
100
AcDbBlockBegin
2
_ORIGIN
70
0
10
0
20
0
3
_ORIGIN
1

0
CIRCLE
5
91
100
AcDbEntity
8
0
6
ByLayer
62
256
370
-1
100
AcDbCircle
10
0
20
0
40
0.5
0
LINE
5
92
100
AcDbEntity
8
0
6
ByLayer
62
256
370
-1
100
AcDbLine
10
0
20
0
11
-1
21
0
0
ENDBLK
5
5D
330
5B
100
AcDbEntity
8
0
100
AcDbBlockEnd
0
BLOCK
5
5F
330
5E
100
AcDbEntity
8
0
100
AcDbBlockBegin
2
_ORIGIN2
70
0
10
0
20
0
3
_ORIGIN2
1

0
CIRCLE
5
93
100
AcDbEntity
8
0
6
ByLayer
62
256
370
-1
100
AcDbCircle
10
0
20
0
40
0.5
0
CIRCLE
5
94
100
AcDbEntity
8
0
6
ByLayer
62
256
370
-1
100
AcDbCircle
10
0
20
0
40
0.25
0
LINE
5
95
100
AcDbEntity
8
0
6
ByLayer
62
256
370
-1
100
AcDbLine
10
-0.5
20
0
11
-1
21
0
0
ENDBLK
5
60
330
5E
100
AcDbEntity
8
0
100
AcDbBlockEnd
0
BLOCK
5
62
330
61
100
AcDbEntity
8
0
100
AcDbBlockBegin
2
_OPEN90
70
0
10
0
20
0
3
_OPEN90
1

0
LINE
5
96
100
AcDbEntity
8
0
6
ByLayer
62
256
370
-1
100
AcDbLine
10
-0.5
20
0.5
11
0
21
0
0
LINE
5
97
100
AcDbEntity
8
0
6
ByLayer
62
256
370
-1
100
AcDbLine
10
0
20
0
11
-0.5
21
-0.5
0
LINE
5
98
100
AcDbEntity
8
0
6
ByLayer
62
256
370
-1
100
AcDbLine
10
0
20
0
11
-1
21
0
0
ENDBLK
5
63
330
61
100
AcDbEntity
8
0
100
AcDbBlockEnd
0
BLOCK
5
65
330
64
100
AcDbEntity
8
0
100
AcDbBlockBegin
2
_OPEN30
70
0
10
0
20
0
3
_OPEN30
1

0
LINE
5
99
100
AcDbEntity
8
0
6
ByLayer
62
256
370
-1
100
AcDbLine
10
-1
20
0.267949
11
0
21
0
0
LINE
5
9A
100
AcDbEntity
8
0
6
ByLayer
62
256
370
-1
100
AcDbLine
10
0
20
0
11
-1
21
-0.267949
0
LINE
5
9B
100
AcDbEntity
8
0
6
ByLayer
62
256
370
-1
100
AcDbLine
10
0
20
0
11
-1
21
0
0
ENDBLK
5
66
330
64
100
AcDbEntity
8
0
100
AcDbBlockEnd
0
BLOCK
5
68
330
67
100
AcDbEntity
8
0
100
AcDbBlockBegin
2
_DOTSMALL
70
0
10
0
20
0
3
_DOTSMALL
1

0
LWPOLYLINE
5
9C
100
AcDbEntity
8
0
6
ByLayer
62
256
370
-1
100
AcDbPolyline
90
2
70
1
43
0
10
0.0625
20
0
42
1
10
-0.0625
20
1.1481063742e-17
42
1
0
ENDBLK
5
69
330
67
100
AcDbEntity
8
0
100
AcDbBlockEnd
0
BLOCK
5
6B
330
6A
100
AcDbEntity
8
0
100
AcDbBlockBegin
2
_DOTBLANK
70
0
10
0
20
0
3
_DOTBLANK
1

0
CIRCLE
5
9D
100
AcDbEntity
8
0
6
ByLayer
62
256
370
-1
100
AcDbCircle
10
0
20
0
40
0.5
0
LINE
5
9E
100
AcDbEntity
8
0
6
ByLayer
62
256
370
-1
100
AcDbLine
10
-0.5
20
0
11
-1
21
0
0
ENDBLK
5
6C
330
6A
100
AcDbEntity
8
0
100
AcDbBlockEnd
0
BLOCK
5
6E
330
6D
100
AcDbEntity
8
0
100
AcDbBlockBegin
2
_SMALL
70
0
10
0
20
0
3
_SMALL
1

0
CIRCLE
5
9F
100
AcDbEntity
8
0
6
ByLayer
62
256
370
-1
100
AcDbCircle
10
0
20
0
40
0.25
0
ENDBLK
5
6F
330
6D
100
AcDbEntity
8
0
100
AcDbBlockEnd
0
BLOCK
5
71
330
70
100
AcDbEntity
8
0
100
AcDbBlockBegin
2
_BOXBLANK
70
0
10
0
20
0
3
_BOXBLANK
1

0
LINE
5
A0
100
AcDbEntity
8
0
6
ByLayer
62
256
370
-1
100
AcDbLine
10
-0.5
20
-0.5
11
0.5
21
-0.5
0
LINE
5
A1
100
AcDbEntity
8
0
6
ByLayer
62
256
370
-1
100
AcDbLine
10
0.5
20
-0.5
11
0.5
21
0.5
0
LINE
5
A2
100
AcDbEntity
8
0
6
ByLayer
62
256
370
-1
100
AcDbLine
10
0.5
20
0.5
11
-0.5
21
0.5
0
LINE
5
A3
100
AcDbEntity
8
0
6
ByLayer
62
256
370
-1
100
AcDbLine
10
-0.5
20
0.5
11
-0.5
21
-0.5
0
LINE
5
A4
100
AcDbEntity
8
0
6
ByLayer
62
256
370
-1
100
AcDbLine
10
-0.5
20
0
11
-1
21
0
0
ENDBLK
5
72
330
70
100
AcDbEntity
8
0
100
AcDbBlockEnd
0
BLOCK
5
74
330
73
100
AcDbEntity
8
0
100
AcDbBlockBegin
2
_BOXFILLED
70
0
10
0
20
0
3
_BOXFILLED
1

0
SOLID
5
A5
100
AcDbEntity
8
0
6
ByLayer
62
256
370
-1
100
AcDbTrace
10
-0.5
20
0.5
30
0
11
0.5
21
0.5
31
0
12
-0.5
22
-0.5
32
0
13
0.5
23
-0.5
33
0
0
LINE
5
A6
100
AcDbEntity
8
0
6
ByLayer
62
256
370
-1
100
AcDbLine
10
-0.5
20
0
11
-1
21
0
0
ENDBLK
5
75
330
73
100
AcDbEntity
8
0
100
AcDbBlockEnd
0
BLOCK
5
77
330
76
100
AcDbEntity
8
0
100
AcDbBlockBegin
2
_DATUMBLANK
70
0
10
0
20
0
3
_DATUMBLANK
1

0
LINE
5
A7
100
AcDbEntity
8
0
6
ByLayer
62
256
370
-1
100
AcDbLine
10
0
20
0.57735
11
-1
21
0
0
LINE
5
A8
100
AcDbEntity
8
0
6
ByLayer
62
256
370
-1
100
AcDbLine
10
-1
20
0
11
0
21
-0.57735
0
LINE
5
A9
100
AcDbEntity
8
0
6
ByLayer
62
256
370
-1
100
AcDbLine
10
0
20
-0.57735
11
0
21
0.57735
0
ENDBLK
5
78
330
76
100
AcDbEntity
8
0
100
AcDbBlockEnd
0
BLOCK
5
7A
330
79
100
AcDbEntity
8
0
100
AcDbBlockBegin
2
_DATUMFILLED
70
0
10
0
20
0
3
_DATUMFILLED
1

0
SOLID
5
AA
100
AcDbEntity
8
0
6
ByLayer
62
256
370
-1
100
AcDbTrace
10
0
20
0.57735
30
0
11
-1
21
0
31
0
12
0
22
-0.57735
32
0
13
0
23
-0.57735
33
0
0
ENDBLK
5
7B
330
79
100
AcDbEntity
8
0
100
AcDbBlockEnd
0
BLOCK
5
7D
330
7C
100
AcDbEntity
8
0
100
AcDbBlockBegin
2
_INTEGRAL
70
0
10
0
20
0
3
_INTEGRAL
1

0
ARC
5
AB
100
AcDbEntity
8
0
6
ByLayer
62
256
370
-1
100
AcDbCircle
10
0.444888
20
-0.091335
40
0.454167
100
AcDbArc
50
102
51
168
0
ARC
5
AC
100
AcDbEntity
8
0
6
ByLayer
62
256
370
-1
100
AcDbCircle
10
-0.444888
20
0.091335
40
0.454167
100
AcDbArc
50
282
51
348
0
ENDBLK
5
7E
330
7C
100
AcDbEntity
8
0
100
AcDbBlockEnd
0
BLOCK
5
80
330
7F
100
AcDbEntity
8
0
100
AcDbBlockBegin
2
_NONE
70
0
10
0
20
0
3
_NONE
1

0
ENDBLK
5
81
330
7F
100
AcDbEntity
8
0
100
AcDbBlockEnd
0
ENDSEC
0
SECTION
2
ENTITIES
0
LWPOLYLINE
5
AD
100
AcDbEntity
8
0
6
CONTINUOUS
62
256
370
-1
100
AcDbPolyline
90
259
70
0
43
0
10
5.00000113305
20
74.2309981578
10
6.13251073305
20
73.3076332281
10
7.23768913305
20
72.3734698746
10
8.31586933305
20
71.4289964172
10
9.36738343305
20
70.4746965603
10
10.392562633
20
69.5110595469
10
11.391739933
20
68.5385690814
10
12.365248333
20
67.5577125606
10
13.313419033
20
66.5689773813
10
14.366443333
20
65.4299689068
10
15.387304333
20
64.2820294398
10
16.376497933
20
63.1258863831
10
17.334520033
20
61.9622643702
10
18.261865633
20
60.7918889577
10
19.159032433
20
59.6154875484
10
20.026514533
20
58.4337856989
10
20.864809633
20
57.2475080427
10
21.674413633
20
56.0573829057
10
22.245478033
20
55.1898341406
10
22.801819333
20
54.3209118027
10
23.343630133
20
53.4508974375
10
23.871098533
20
52.5800688981
10
24.384417133
20
51.7087058838
10
24.883776733
20
50.8370871708
10
25.369367233
20
49.9654924584
10
25.841380333
20
49.0942005228
10
26.745435733
20
47.3536428561
10
27.343570333
20
46.145377881
10
27.917044033
20
44.9400742107
10
28.466369833
20
43.7384823255
10
28.992062533
20
42.541355475
10
29.494635133
20
41.3494450626
10
29.974602433
20
40.1635043379
10
30.432477433
20
38.9842847043
10
30.868774933
20
37.8125375652
10
31.284007933
20
36.6490152471
10
31.827648433
20
35.0452997706
10
32.332893133
20
33.460986933
10
32.801126233
20
31.8981029388
10
33.233730133
20
30.3586739925
10
33.632089933
20
28.8447244524
10
33.997588933
20
27.3582795999
10
34.331611333
20
25.9013665626
10
34.635541333
20
24.4760096988
10
34.910762233
20
23.084235213
10
35.201676433
20
21.480995133
10
35.333460733
20
20.699184819
10
35.456513233
20
19.9311443877
10
35.571121033
20
19.1772929265
10
35.677573933
20
18.4380541383
10
35.776159033
20
17.7138480336
10
35.867164333
20
17.0050973922
10
35.950878733
20
16.3122222246
10
36.027588433
20
15.6356453106
10
36.108416533
20
14.8694316942
10
36.180604633
20
14.1265208142
10
36.244607233
20
13.4075773026
10
36.300877933
20
12.7132648683
10
36.349869433
20
12.0442472202
10
36.392036233
20
11.4011899134
10
36.427832833
20
10.7847557337
10
36.457711933
20
10.1956093131
10
36.482127133
20
9.63441528358
10
36.504262633
20
9.01745862928
10
36.520330333
20
8.44029496978
10
36.531043933
20
7.90397202358
10
36.537118933
20
7.40953658608
10
36.539270833
20
6.95803452958
10
36.538213333
20
6.55051172638
10
36.534662833
20
6.18801497188
10
36.529333933
20
5.87159198458
10
36.522940333
20
5.60228679058
10
36.519312433
20
5.47730274298
10
36.515694433
20
5.36641166308
10
36.512197933
20
5.26977878578
10
36.508934533
20
5.18756565358
10
36.506014933
20
5.11993565518
10
36.503550733
20
5.06705125618
10
36.501652633
20
5.02907492218
10
36.500432233
20
5.00616911878
10
36.500001133
20
4.99849815778
10
63.500001133
20
4.99849815778
10
63.499570033
20
5.00616911878
10
63.498349633
20
5.02907492218
10
63.496451533
20
5.06705125618
10
63.493987333
20
5.11993565518
10
63.491067733
20
5.18756565358
10
63.487804333
20
5.26977878578
10
63.484307833
20
5.36641166308
10
63.480689833
20
5.47730274298
10
63.477061933
20
5.60228679058
10
63.470668333
20
5.87159198458
10
63.465339433
20
6.18801497188
10
63.461788933
20
6.55051172638
10
63.460731433
20
6.95803452958
10
63.462883333
20
7.40953658608
10
63.468958333
20
7.90397202358
10
63.479671933
20
8.44029496978
10
63.495739633
20
9.01745862928
10
63.517875133
20
9.63441528358
10
63.542290333
20
10.1956093131
10
63.572169433
20
10.7847557337
10
63.607966033
20
11.4011899134
10
63.650132833
20
12.0442472202
10
63.699124333
20
12.7132648683
10
63.755395033
20
13.4075773026
10
63.819397633
20
14.1265208142
10
63.891585733
20
14.8694316942
10
63.972413833
20
15.6356453106
10
64.049123533
20
16.3122222246
10
64.132837933
20
17.0050973922
10
64.223843233
20
17.7138480336
10
64.322428333
20
18.4380541383
10
64.428881233
20
19.1772929265
10
64.543489033
20
19.9311443877
10
64.666541533
20
20.699184819
10
64.798325833
20
21.480995133
10
65.089240033
20
23.084235213
10
65.364460933
20
24.4760096988
10
65.668390933
20
25.9013665626
10
66.002413333
20
27.3582795999
10
66.367912333
20
28.8447244524
10
66.766272133
20
30.3586739925
10
67.198876033
20
31.8981029388
10
67.667109133
20
33.460986933
10
68.172353833
20
35.0452997706
10
68.715994333
20
36.6490152471
10
69.131227333
20
37.8125375652
10
69.567524833
20
38.9842847043
10
70.025399833
20
40.1635043379
10
70.505367133
20
41.3494450626
10
71.007939733
20
42.541355475
10
71.533632433
20
43.7384823255
10
72.082958233
20
44.9400742107
10
72.656431933
20
46.145377881
10
73.254566533
20
47.3536428561
10
74.158621933
20
49.0942005228
10
74.630635033
20
49.9654924584
10
75.116225533
20
50.8370871708
10
75.615585133
20
51.7087058838
10
76.128903733
20
52.5800688981
10
76.656372133
20
53.4508974375
10
77.198182933
20
54.3209118027
10
77.754524233
20
55.1898341406
10
78.325588633
20
56.0573829057
10
79.135192633
20
57.2475080427
10
79.973487733
20
58.4337856989
10
80.840969833
20
59.6154875484
10
81.738136633
20
60.7918889577
10
82.665482233
20
61.9622643702
10
83.623504333
20
63.1258863831
10
84.612697933
20
64.2820294398
10
85.633558933
20
65.4299689068
10
86.686583233
20
66.5689773813
10
87.634753933
20
67.5577125606
10
88.608262333
20
68.5385690814
10
89.607439633
20
69.5110595469
10
90.632618833
20
70.4746965603
10
91.684132933
20
71.4289964172
10
92.762313133
20
72.3734698746
10
93.867491533
20
73.3076332281
10
95.000001133
20
74.2309981578
10
95.000001133
20
92.6929981578
10
81.500001133
20
83.4619981578
10
80.960226133
20
83.0975075073
10
80.433466933
20
82.7677577253
10
79.919604733
20
82.471882944
10
79.418519833
20
82.2090163725
10
78.930091633
20
81.9782912199
10
78.454201333
20
81.7788425415
10
77.990728333
20
81.6098017002
10
77.539553833
20
81.4703037513
10
77.038829833
20
81.34594095
10
76.553833333
20
81.2577396681
10
76.084385233
20
81.2044066425
10
75.630307333
20
81.1846486101
10
75.191420533
20
81.1971713847
10
74.767544833
20
81.2406826263
10
74.358502933
20
81.3138890718
10
73.964115733
20
81.415496535
10
73.584204133
20
81.5442126759
10
73.290576433
20
81.6658347933
10
73.006008133
20
81.8033157687
10
72.730406533
20
81.9559946625
10
72.463679833
20
82.1232086889
10
72.205738033
20
82.3042950621
10
71.956487533
20
82.4985928425
10
71.483698633
20
82.9241714817
10
71.044579633
20
83.3946478587
10
70.638398833
20
83.9047243026
10
70.374877033
20
84.2801075331
10
70.126694833
20
84.6703083648
10
69.893604733
20
85.0735424454
10
69.675360133
20
85.4880272688
10
69.471715333
20
85.9119784827
10
69.282422833
20
86.3436126579
10
69.107236933
20
86.7811472883
10
68.945910133
20
87.2227989447
10
68.798197633
20
87.6667841979
10
68.614865833
20
88.2850304229
10
68.456743933
20
88.899539016
10
68.323168633
20
89.5055070879
10
68.213474833
20
90.0981317493
10
68.126999233
20
90.6726091878
10
68.063078533
20
91.2241374372
10
68.021047633
20
91.7479136082
10
68.000243233
20
92.2391348115
10
68.000001133
20
92.6929981578
10
68.000001133
20
120.386921258
42
0.414096
10
63.500901133
20
125.001498158
10
36.499101133
20
125.001498158
42
0.414096
10
32.000001133
20
120.386921258
10
32.000001133
20
92.6929981578
10
31.999759033
20
92.2391348115
10
31.978954633
20
91.7479136082
10
31.936923733
20
91.2241374372
10
31.873003033
20
90.6726091878
10
31.786527433
20
90.0981317493
10
31.676833633
20
89.5055070879
10
31.543258333
20
88.899539016
10
31.385136433
20
88.2850304229
10
31.201804633
20
87.6667841979
10
31.054092133
20
87.2227989447
10
30.892765333
20
86.7811472883
10
30.717579433
20
86.3436126579
10
30.528286933
20
85.9119784827
10
30.324642133
20
85.4880272688
10
30.106397533
20
85.0735424454
10
29.873307433
20
84.6703083648
10
29.625125233
20
84.2801075331
10
29.361603433
20
83.9047243026
10
28.955422633
20
83.3946478587
10
28.516303633
20
82.9241714817
10
28.043514733
20
82.4985928425
10
27.794264233
20
82.3042950621
10
27.536322433
20
82.1232086889
10
27.269595733
20
81.9559946625
10
26.993994133
20
81.8033157687
10
26.709425833
20
81.6658347933
10
26.415798133
20
81.5442126759
10
26.035886533
20
81.415496535
10
25.641499333
20
81.3138890718
10
25.232457433
20
81.2406826263
10
24.808581733
20
81.1971713847
10
24.369694933
20
81.1846486101
10
23.915617033
20
81.2044066425
10
23.446168933
20
81.2577396681
10
22.961172433
20
81.34594095
10
22.460448433
20
81.4703037513
10
22.009273933
20
81.6098017002
10
21.545800933
20
81.7788425415
10
21.069910633
20
81.9782912199
10
20.581482433
20
82.2090163725
10
20.080397533
20
82.471882944
10
19.566535333
20
82.7677577253
10
19.039776133
20
83.0975075073
10
18.500001133
20
83.4619981578
10
5.00000113305
20
92.6929981578
10
5.00000113305
20
74.2309981578
0
ENDSEC
0
SECTION
2
OBJECTS
0
DICTIONARY
5
C
330
0
100
AcDbDictionary
281
1
3
ACAD_GROUP
350
D
0
DICTIONARY
5
D
330
C
100
AcDbDictionary
281
1
0
ENDSEC
0
EOF
