999
dxfrw 0.5.10
0
SECTION
2
HEADER
9
$ACADVER
1
AC1021
9
$HANDSEED
5
20000
9
$DWGCODEPAGE
3
ANSI_1252
9
$INSBASE
10
0
20
0
30
0
9
$EXTMIN
10
0
20
0
30
0
9
$EXTMAX
10
100
20
130
30
0
9
$LIMMIN
10
0
20
0
9
$LIMMAX
10
420
20
297
9
$ORTHOMODE
70
0
9
$LTSCALE
40
1
9
$TEXTSTYLE
7
STANDARD
9
$CLAYER
8
0
9
$DIMASZ
40
2.5
9
$DIMLFAC
40
1
9
$DIMSCALE
40
1
9
$DIMEXO
40
0.625
9
$DIMEXE
40
1.25
9
$DIMTXT
40
2.5
9
$DIMTSZ
40
0
9
$DIMAUNIT
70
0
9
$DIMADEC
70
0
9
$DIMLUNIT
70
2
9
$DIMSTYLE
2
Standard
9
$DIMGAP
40
0.625
9
$DIMTIH
70
0
9
$LUNITS
70
2
9
$LUPREC
70
4
9
$AUNITS
70
0
9
$AUPREC
70
2
9
$SPLINESEGS
70
8
9
$SNAPSTYLE
70
0
9
$PINSBASE
10
0
20
0
30
0
9
$PLIMMIN
10
0
20
0
9
$PLIMMAX
10
210
20
297
9
$INSUNITS
70
4
9
$PSVPSCALE
40
1
0
ENDSEC
0
SECTION
2
CLASSES
0
ENDSEC
0
SECTION
2
TABLES
0
TABLE
2
VPORT
5
8
330
0
100
AcDbSymbolTable
70
1
0
VPORT
5
31
330
2
100
AcDbSymbolTableRecord
100
AcDbViewportTableRecord
2
*ACTIVE
70
0
10
0
20
0
11
1
21
1
12
30.7232768
22
60.35603456
13
0
23
0
14
10
24
10
15
10
25
10
16
0
26
0
36
1
17
0
27
0
37
0
40
19.96488704
41
2.00420168067
42
50
43
0
44
0
50
0
51
0
71
0
72
100
73
1
74
3
75
0
76
1
77
0
78
0
281
0
65
1
110
0
120
0
130
0
111
1
121
0
131
0
112
0
122
1
132
0
79
0
146
0
348
10020
60
7
61
5
292
1
282
1
141
0
142
0
63
250
421
3358443
0
ENDTAB
0
TABLE
2
LTYPE
5
5
330
0
100
AcDbSymbolTable
70
4
0
LTYPE
5
14
330
5
100
AcDbSymbolTableRecord
100
AcDbLinetypeTableRecord
2
ByBlock
70
0
3

72
65
73
0
40
0
0
LTYPE
5
15
330
5
100
AcDbSymbolTableRecord
100
AcDbLinetypeTableRecord
2
ByLayer
70
0
3

72
65
73
0
40
0
0
LTYPE
5
16
330
5
100
AcDbSymbolTableRecord
100
AcDbLinetypeTableRecord
2
Continuous
70
0
3
Solid line
72
65
73
0
40
0
0
LTYPE
5
32
330
5
100
AcDbSymbolTableRecord
100
AcDbLinetypeTableRecord
2
DOT
70
0
3
Dot . . . . . . . . . . . . . . . . . . . . . .
72
65
73
2
40
6.35
49
0
74
0
49
-6.35
74
0
0
LTYPE
5
33
330
5
100
AcDbSymbolTableRecord
100
AcDbLinetypeTableRecord
2
DOT2
70
0
3
Dot (.5x) .....................................
72
65
73
2
40
3.175
49
0
74
0
49
-3.175
74
0
0
LTYPE
5
34
330
5
100
AcDbSymbolTableRecord
100
AcDbLinetypeTableRecord
2
DOTX2
70
0
3
Dot (2x) .  .  .  .  .  .  .  .  .  .  .  .  .
72
65
73
2
40
12.7
49
0
74
0
49
-12.7
74
0
0
LTYPE
5
35
330
5
100
AcDbSymbolTableRecord
100
AcDbLinetypeTableRecord
2
DASHED
70
0
3
Dot . . . . . . . . . . . . . . . . . . . . . .
72
65
73
2
40
19.05
49
12.7
74
0
49
-6.35
74
0
0
LTYPE
5
36
330
5
100
AcDbSymbolTableRecord
100
AcDbLinetypeTableRecord
2
DASHED2
70
0
3
Dashed (.5x) _ _ _ _ _ _ _ _ _ _ _ _ _ _ _ _ _
72
65
73
2
40
9.525
49
6.35
74
0
49
-3.175
74
0
0
LTYPE
5
37
330
5
100
AcDbSymbolTableRecord
100
AcDbLinetypeTableRecord
2
DASHEDX2
70
0
3
Dashed (2x) ____  ____  ____  ____  ____  ___
72
65
73
2
40
38.1
49
25.4
74
0
49
-12.7
74
0
0
LTYPE
5
38
330
5
100
AcDbSymbolTableRecord
100
AcDbLinetypeTableRecord
2
DASHDOT
70
0
3
Dash dot __ . __ . __ . __ . __ . __ . __ . __
72
65
73
4
40
25.4
49
12.7
74
0
49
-6.35
74
0
49
0
74
0
49
-6.35
74
0
0
LTYPE
5
39
330
5
100
AcDbSymbolTableRecord
100
AcDbLinetypeTableRecord
2
DASHDOT2
70
0
3
Dash dot (.5x) _._._._._._._._._._._._._._._.
72
65
73
4
40
12.7
49
6.35
74
0
49
-3.175
74
0
49
0
74
0
49
-3.175
74
0
0
LTYPE
5
3A
330
5
100
AcDbSymbolTableRecord
100
AcDbLinetypeTableRecord
2
DASHDOTX2
70
0
3
Dash dot (2x) ____  .  ____  .  ____  .  ___
72
65
73
4
40
50.8
49
25.4
74
0
49
-12.7
74
0
49
0
74
0
49
-12.7
74
0
0
LTYPE
5
3B
330
5
100
AcDbSymbolTableRecord
100
AcDbLinetypeTableRecord
2
DIVIDE
70
0
3
Divide ____ . . ____ . . ____ . . ____ . . ____
72
65
73
6
40
31.75
49
12.7
74
0
49
-6.35
74
0
49
0
74
0
49
-6.35
74
0
49
0
74
0
49
-6.35
74
0
0
LTYPE
5
3C
330
5
100
AcDbSymbolTableRecord
100
AcDbLinetypeTableRecord
2
DIVIDE2
70
0
3
Divide (.5x) __..__..__..__..__..__..__..__.._
72
65
73
6
40
15.875
49
6.35
74
0
49
-3.175
74
0
49
0
74
0
49
-3.175
74
0
49
0
74
0
49
-3.175
74
0
0
LTYPE
5
3D
330
5
100
AcDbSymbolTableRecord
100
AcDbLinetypeTableRecord
2
DIVIDEX2
70
0
3
Divide (2x) ________  .  .  ________  .  .  _
72
65
73
6
40
63.5
49
25.4
74
0
49
-12.7
74
0
49
0
74
0
49
-12.7
74
0
49
0
74
0
49
-12.7
74
0
0
LTYPE
5
3E
330
5
100
AcDbSymbolTableRecord
100
AcDbLinetypeTableRecord
2
BORDER
70
0
3
Border __ __ . __ __ . __ __ . __ __ . __ __ .
72
65
73
6
40
44.45
49
12.7
74
0
49
-6.35
74
0
49
12.7
74
0
49
-6.35
74
0
49
0
74
0
49
-6.35
74
0
0
LTYPE
5
3F
330
5
100
AcDbSymbolTableRecord
100
AcDbLinetypeTableRecord
2
BORDER2
70
0
3
Border (.5x) __.__.__.__.__.__.__.__.__.__.__.
72
65
73
6
40
22.225
49
6.35
74
0
49
-3.175
74
0
49
6.35
74
0
49
-3.175
74
0
49
0
74
0
49
-3.175
74
0
0
LTYPE
5
40
330
5
100
AcDbSymbolTableRecord
100
AcDbLinetypeTableRecord
2
BORDERX2
70
0
3
Border (2x) ____  ____  .  ____  ____  .  ___
72
65
73
6
40
88.9
49
25.4
74
0
49
-12.7
74
0
49
25.4
74
0
49
-12.7
74
0
49
0
74
0
49
-12.7
74
0
0
LTYPE
5
41
330
5
100
AcDbSymbolTableRecord
100
AcDbLinetypeTableRecord
2
CENTER
70
0
3
Center ____ _ ____ _ ____ _ ____ _ ____ _ ____
72
65
73
4
40
50.8
49
31.75
74
0
49
-6.35
74
0
49
6.35
74
0
49
-6.35
74
0
0
LTYPE
5
42
330
5
100
AcDbSymbolTableRecord
100
AcDbLinetypeTableRecord
2
CENTER2
70
0
3
Center (.5x) ___ _ ___ _ ___ _ ___ _ ___ _ ___
72
65
73
4
40
28.575
49
19.05
74
0
49
-3.175
74
0
49
3.175
74
0
49
-3.175
74
0
0
LTYPE
5
43
330
5
100
AcDbSymbolTableRecord
100
AcDbLinetypeTableRecord
2
CENTERX2
70
0
3
Center (2x) ________  __  ________  __  _____
72
65
73
4
40
101.6
49
63.5
74
0
49
-12.7
74
0
49
12.7
74
0
49
-12.7
74
0
0
ENDTAB
0
TABLE
2
LAYER
5
2
330
0
100
AcDbSymbolTable
70
1
0
LAYER
5
10
330
2
100
AcDbSymbolTableRecord
100
AcDbLayerTableRecord
2
0
70
0
62
7
6
CONTINUOUS
370
-3
390
F
0
ENDTAB
0
TABLE
2
STYLE
5
3
330
0
100
AcDbSymbolTable
70
3
0
STYLE
5
44
330
2
100
AcDbSymbolTableRecord
100
AcDbTextStyleTableRecord
2
Standard
70
0
40
0
41
1
50
0
71
0
42
1
3
txt
4

0
ENDTAB
0
TABLE
2
VIEW
5
6
330
0
100
AcDbSymbolTable
70
0
0
ENDTAB
0
TABLE
2
UCS
5
7
330
0
100
AcDbSymbolTable
70
0
0
ENDTAB
0
TABLE
2
APPID
5
9
330
0
100
AcDbSymbolTable
70
1
0
APPID
5
12
330
9
100
AcDbSymbolTableRecord
100
AcDbRegAppTableRecord
2
ACAD
70
0
0
ENDTAB
0
TABLE
2
DIMSTYLE
5
A
330
0
100
AcDbSymbolTable
70
1
100
AcDbDimStyleTable
71
1
0
DIMSTYLE
105
45
330
A
100
AcDbSymbolTableRecord
100
AcDbDimStyleTableRecord
2
Standard
70
0
40
1
41
2.5
42
0.625
43
0.38
44
1.25
45
0
46
0
47
0
48
0
140
2.5
141
0.09
142
0
143
25.4
144
1
145
0
146
1
147
0.625
148
0
71
0
72
0
73
0
74
1
75
0
76
0
77
0
78
0
79
0
170
0
171
2
172
0
173
0
174
0
175
0
176
0
177
0
178
0
179
0
271
4
272
4
273
2
274
2
275
0
276
0
277
2
278
46
279
0
280
0
281
0
282
0
283
1
284
0
285
0
286
0
288
0
289
3
340
Standard
341

371
-2
372
-2
0
ENDTAB
0
TABLE
2
BLOCK_RECORD
5
1
330
0
100
AcDbSymbolTable
70
2
0
BLOCK_RECORD
5
1F
330
1
100
AcDbSymbolTableRecord
100
AcDbBlockTableRecord
2
*Model_Space
70
0
280
1
281
0
0
BLOCK_RECORD
5
1E
330
1
100
AcDbSymbolTableRecord
100
AcDbBlockTableRecord
2
*Paper_Space
70
0
280
1
281
0
0
BLOCK_RECORD
5
46
330
1
100
AcDbSymbolTableRecord
100
AcDbBlockTableRecord
2
_CLOSEDFILLED
70
0
280
1
281
0
0
BLOCK_RECORD
5
49
330
1
100
AcDbSymbolTableRecord
100
AcDbBlockTableRecord
2
_CLOSEDBLANK
70
0
280
1
281
0
0
BLOCK_RECORD
5
4C
330
1
100
AcDbSymbolTableRecord
100
AcDbBlockTableRecord
2
_CLOSED
70
0
280
1
281
0
0
BLOCK_RECORD
5
4F
330
1
100
AcDbSymbolTableRecord
100
AcDbBlockTableRecord
2
_DOT
70
0
280
1
281
0
0
BLOCK_RECORD
5
52
330
1
100
AcDbSymbolTableRecord
100
AcDbBlockTableRecord
2
_ARCHTICK
70
0
280
1
281
0
0
BLOCK_RECORD
5
55
330
1
100
AcDbSymbolTableRecord
100
AcDbBlockTableRecord
2
_OBLIQUE
70
0
280
1
281
0
0
BLOCK_RECORD
5
58
330
1
100
AcDbSymbolTableRecord
100
AcDbBlockTableRecord
2
_OPEN
70
0
280
1
281
0
0
BLOCK_RECORD
5
5B
330
1
100
AcDbSymbolTableRecord
100
AcDbBlockTableRecord
2
_ORIGIN
70
0
280
1
281
0
0
BLOCK_RECORD
5
5E
330
1
100
AcDbSymbolTableRecord
100
AcDbBlockTableRecord
2
_ORIGIN2
70
0
280
1
281
0
0
BLOCK_RECORD
5
61
330
1
100
AcDbSymbolTableRecord
100
AcDbBlockTableRecord
2
_OPEN90
70
0
280
1
281
0
0
BLOCK_RECORD
5
64
330
1
100
AcDbSymbolTableRecord
100
AcDbBlockTableRecord
2
_OPEN30
70
0
280
1
281
0
0
BLOCK_RECORD
5
67
330
1
100
AcDbSymbolTableRecord
100
AcDbBlockTableRecord
2
_DOTSMALL
70
0
280
1
281
0
0
BLOCK_RECORD
5
6A
330
1
100
AcDbSymbolTableRecord
100
AcDbBlockTableRecord
2
_DOTBLANK
70
0
280
1
281
0
0
BLOCK_RECORD
5
6D
330
1
100
AcDbSymbolTableRecord
100
AcDbBlockTableRecord
2
_SMALL
70
0
280
1
281
0
0
BLOCK_RECORD
5
70
330
1
100
AcDbSymbolTableRecord
100
AcDbBlockTableRecord
2
_BOXBLANK
70
0
280
1
281
0
0
BLOCK_RECORD
5
73
330
1
100
AcDbSymbolTableRecord
100
AcDbBlockTableRecord
2
_BOXFILLED
70
0
280
1
281
0
0
BLOCK_RECORD
5
76
330
1
100
AcDbSymbolTableRecord
100
AcDbBlockTableRecord
2
_DATUMBLANK
70
0
280
1
281
0
0
BLOCK_RECORD
5
79
330
1
100
AcDbSymbolTableRecord
100
AcDbBlockTableRecord
2
_DATUMFILLED
70
0
280
1
281
0
0
BLOCK_RECORD
5
7C
330
1
100
AcDbSymbolTableRecord
100
AcDbBlockTableRecord
2
_INTEGRAL
70
0
280
1
281
0
0
BLOCK_RECORD
5
7F
330
1
100
AcDbSymbolTableRecord
100
AcDbBlockTableRecord
2
_NONE
70
0
280
1
281
0
0
ENDTAB
0
ENDSEC
0
SECTION
2
BLOCKS
0
BLOCK
5
20
330
1F
100
AcDbEntity
8
0
100
AcDbBlockBegin
2
*Model_Space
70
0
10
0
20
0
30
0
3
*Model_Space
1

0
ENDBLK
5
21
330
1F
100
AcDbEntity
8
0
100
AcDbBlockEnd
0
BLOCK
5
1C
330
1B
100
AcDbEntity
8
0
100
AcDbBlockBegin
2
*Paper_Space
70
0
10
0
20
0
30
0
3
*Paper_Space
1

0
ENDBLK
5
1D
330
1F
100
AcDbEntity
8
0
100
AcDbBlockEnd
0
BLOCK
5
47
330
46
100
AcDbEntity
8
0
100
AcDbBlockBegin
2
_CLOSEDFILLED
70
0
10
0
20
0
3
_CLOSEDFILLED
1

0
SOLID
5
82
100
AcDbEntity
8
0
6
ByLayer
62
256
370
-1
100
AcDbTrace
10
-1
20
0.166667
30
0
11
-1
21
-0.166667
31
0
12
0
22
0
32
0
13
0
23
0
33
0
0
ENDBLK
5
48
330
46
100
AcDbEntity
8
0
100
AcDbBlockEnd
0
BLOCK
5
4A
330
49
100
AcDbEntity
8
0
100
AcDbBlockBegin
2
_CLOSEDBLANK
70
0
10
0
20
0
3
_CLOSEDBLANK
1

0
LINE
5
83
100
AcDbEntity
8
0
6
ByLayer
62
256
370
-1
100
AcDbLine
10
-1
20
0.166667
11
0
21
0
0
LINE
5
84
100
AcDbEntity
8
0
6
ByLayer
62
256
370
-1
100
AcDbLine
10
0
20
0
11
-1
21
-0.166667
0
LINE
5
85
100
AcDbEntity
8
0
6
ByLayer
62
256
370
-1
100
AcDbLine
10
-1
20
0.166667
11
-1
21
-0.166667
0
ENDBLK
5
4B
330
49
100
AcDbEntity
8
0
100
AcDbBlockEnd
0
BLOCK
5
4D
330
4C
100
AcDbEntity
8
0
100
AcDbBlockBegin
2
_CLOSED
70
0
10
0
20
0
3
_CLOSED
1

0
LINE
5
86
100
AcDbEntity
8
0
6
ByLayer
62
256
370
-1
100
AcDbLine
10
-1
20
0.166667
11
0
21
0
0
LINE
5
87
100
AcDbEntity
8
0
6
ByLayer
62
256
370
-1
100
AcDbLine
10
0
20
0
11
-1
21
-0.166667
0
LINE
5
88
100
AcDbEntity
8
0
6
ByLayer
62
256
370
-1
100
AcDbLine
10
-1
20
0.166667
11
-1
21
-0.166667
0
LINE
5
89
100
AcDbEntity
8
0
6
ByLayer
62
256
370
-1
100
AcDbLine
10
0
20
0
11
-1
21
0
0
ENDBLK
5
4E
330
4C
100
AcDbEntity
8
0
100
AcDbBlockEnd
0
BLOCK
5
50
330
4F
100
AcDbEntity
8
0
100
AcDbBlockBegin
2
_DOT
70
0
10
0
20
0
3
_DOT
1

0
LWPOLYLINE
5
8A
100
AcDbEntity
8
0
6
ByLayer
62
256
370
-1
100
AcDbPolyline
90
2
70
1
43
0
10
0.25
20
0
42
1
10
-0.25
20
4.5924254968e-17
42
1
0
LINE
5
8B
100
AcDbEntity
8
0
6
ByLayer
62
256
370
-1
100
AcDbLine
10
-0.5
20
0
11
-1
21
0
0
ENDBLK
5
51
330
4F
100
AcDbEntity
8
0
100
AcDbBlockEnd
0
BLOCK
5
53
330
52
100
AcDbEntity
8
0
100
AcDbBlockBegin
2
_ARCHTICK
70
0
10
0
20
0
3
_ARCHTICK
1

0
LWPOLYLINE
5
8C
100
AcDbEntity
8
0
6
ByLayer
62
256
370
-1
100
AcDbPolyline
90
2
70
0
43
0
10
0.5
20
0.5
10
-0.5
20
-0.5
0
ENDBLK
5
54
330
52
100
AcDbEntity
8
0
100
AcDbBlockEnd
0
BLOCK
5
56
330
55
100
AcDbEntity
8
0
100
AcDbBlockBegin
2
_OBLIQUE
70
0
10
0
20
0
3
_OBLIQUE
1

0
LINE
5
8D
100
AcDbEntity
8
0
6
ByLayer
62
256
370
-1
100
AcDbLine
10
-0.5
20
-0.5
11
0.5
21
0.5
0
ENDBLK
5
57
330
55
100
AcDbEntity
8
0
100
AcDbBlockEnd
0
BLOCK
5
59
330
58
100
AcDbEntity
8
0
100
AcDbBlockBegin
2
_OPEN
70
0
10
0
20
0
3
_OPEN
1

0
LINE
5
8E
100
AcDbEntity
8
0
6
ByLayer
62
256
370
-1
100
AcDbLine
10
-1
20
0.166667
11
0
21
0
0
LINE
5
8F
100
AcDbEntity
8
0
6
ByLayer
62
256
370
-1
100
AcDbLine
10
-1
20
-0.166667
11
0
21
0
0
LINE
5
90
100
AcDbEntity
8
0
6
ByLayer
62
256
370
-1
100
AcDbLine
10
0
20
0
11
-1
21
0
0
ENDBLK
5
5A
330
58
100
AcDbEntity
8
0
100
AcDbBlockEnd
0
BLOCK
5
5C
330
5B
100
AcDbEntity
8
0
100
AcDbBlockBegin
2
_ORIGIN
70
0
10
0
20
0
3
_ORIGIN
1

0
CIRCLE
5
91
100
AcDbEntity
8
0
6
ByLayer
62
256
370
-1
100
AcDbCircle
10
0
20
0
40
0.5
0
LINE
5
92
100
AcDbEntity
8
0
6
ByLayer
62
256
370
-1
100
AcDbLine
10
0
20
0
11
-1
21
0
0
ENDBLK
5
5D
330
5B
100
AcDbEntity
8
0
100
AcDbBlockEnd
0
BLOCK
5
5F
330
5E
100
AcDbEntity
8
0
100
AcDbBlockBegin
2
_ORIGIN2
70
0
10
0
20
0
3
_ORIGIN2
1

0
CIRCLE
5
93
100
AcDbEntity
8
0
6
ByLayer
62
256
370
-1
100
AcDbCircle
10
0
20
0
40
0.5
0
CIRCLE
5
94
100
AcDbEntity
8
0
6
ByLayer
62
256
370
-1
100
AcDbCircle
10
0
20
0
40
0.25
0
LINE
5
95
100
AcDbEntity
8
0
6
ByLayer
62
256
370
-1
100
AcDbLine
10
-0.5
20
0
11
-1
21
0
0
ENDBLK
5
60
330
5E
100
AcDbEntity
8
0
100
AcDbBlockEnd
0
BLOCK
5
62
330
61
100
AcDbEntity
8
0
100
AcDbBlockBegin
2
_OPEN90
70
0
10
0
20
0
3
_OPEN90
1

0
LINE
5
96
100
AcDbEntity
8
0
6
ByLayer
62
256
370
-1
100
AcDbLine
10
-0.5
20
0.5
11
0
21
0
0
LINE
5
97
100
AcDbEntity
8
0
6
ByLayer
62
256
370
-1
100
AcDbLine
10
0
20
0
11
-0.5
21
-0.5
0
LINE
5
98
100
AcDbEntity
8
0
6
ByLayer
62
256
370
-1
100
AcDbLine
10
0
20
0
11
-1
21
0
0
ENDBLK
5
63
330
61
100
AcDbEntity
8
0
100
AcDbBlockEnd
0
BLOCK
5
65
330
64
100
AcDbEntity
8
0
100
AcDbBlockBegin
2
_OPEN30
70
0
10
0
20
0
3
_OPEN30
1

0
LINE
5
99
100
AcDbEntity
8
0
6
ByLayer
62
256
370
-1
100
AcDbLine
10
-1
20
0.267949
11
0
21
0
0
LINE
5
9A
100
AcDbEntity
8
0
6
ByLayer
62
256
370
-1
100
AcDbLine
10
0
20
0
11
-1
21
-0.267949
0
LINE
5
9B
100
AcDbEntity
8
0
6
ByLayer
62
256
370
-1
100
AcDbLine
10
0
20
0
11
-1
21
0
0
ENDBLK
5
66
330
64
100
AcDbEntity
8
0
100
AcDbBlockEnd
0
BLOCK
5
68
330
67
100
AcDbEntity
8
0
100
AcDbBlockBegin
2
_DOTSMALL
70
0
10
0
20
0
3
_DOTSMALL
1

0
LWPOLYLINE
5
9C
100
AcDbEntity
8
0
6
ByLayer
62
256
370
-1
100
AcDbPolyline
90
2
70
1
43
0
10
0.0625
20
0
42
1
10
-0.0625
20
1.1481063742e-17
42
1
0
ENDBLK
5
69
330
67
100
AcDbEntity
8
0
100
AcDbBlockEnd
0
BLOCK
5
6B
330
6A
100
AcDbEntity
8
0
100
AcDbBlockBegin
2
_DOTBLANK
70
0
10
0
20
0
3
_DOTBLANK
1

0
CIRCLE
5
9D
100
AcDbEntity
8
0
6
ByLayer
62
256
370
-1
100
AcDbCircle
10
0
20
0
40
0.5
0
LINE
5
9E
100
AcDbEntity
8
0
6
ByLayer
62
256
370
-1
100
AcDbLine
10
-0.5
20
0
11
-1
21
0
0
ENDBLK
5
6C
330
6A
100
AcDbEntity
8
0
100
AcDbBlockEnd
0
BLOCK
5
6E
330
6D
100
AcDbEntity
8
0
100
AcDbBlockBegin
2
_SMALL
70
0
10
0
20
0
3
_SMALL
1

0
CIRCLE
5
9F
100
AcDbEntity
8
0
6
ByLayer
62
256
370
-1
100
AcDbCircle
10
0
20
0
40
0.25
0
ENDBLK
5
6F
330
6D
100
AcDbEntity
8
0
100
AcDbBlockEnd
0
BLOCK
5
71
330
70
100
AcDbEntity
8
0
100
AcDbBlockBegin
2
_BOXBLANK
70
0
10
0
20
0
3
_BOXBLANK
1

0
LINE
5
A0
100
AcDbEntity
8
0
6
ByLayer
62
256
370
-1
100
AcDbLine
10
-0.5
20
-0.5
11
0.5
21
-0.5
0
LINE
5
A1
100
AcDbEntity
8
0
6
ByLayer
62
256
370
-1
100
AcDbLine
10
0.5
20
-0.5
11
0.5
21
0.5
0
LINE
5
A2
100
AcDbEntity
8
0
6
ByLayer
62
256
370
-1
100
AcDbLine
10
0.5
20
0.5
11
-0.5
21
0.5
0
LINE
5
A3
100
AcDbEntity
8
0
6
ByLayer
62
256
370
-1
100
AcDbLine
10
-0.5
20
0.5
11
-0.5
21
-0.5
0
LINE
5
A4
100
AcDbEntity
8
0
6
ByLayer
62
256
370
-1
100
AcDbLine
10
-0.5
20
0
11
-1
21
0
0
ENDBLK
5
72
330
70
100
AcDbEntity
8
0
100
AcDbBlockEnd
0
BLOCK
5
74
330
73
100
AcDbEntity
8
0
100
AcDbBlockBegin
2
_BOXFILLED
70
0
10
0
20
0
3
_BOXFILLED
1

0
SOLID
5
A5
100
AcDbEntity
8
0
6
ByLayer
62
256
370
-1
100
AcDbTrace
10
-0.5
20
0.5
30
0
11
0.5
21
0.5
31
0
12
-0.5
22
-0.5
32
0
13
0.5
23
-0.5
33
0
0
LINE
5
A6
100
AcDbEntity
8
0
6
ByLayer
62
256
370
-1
100
AcDbLine
10
-0.5
20
0
11
-1
21
0
0
ENDBLK
5
75
330
73
100
AcDbEntity
8
0
100
AcDbBlockEnd
0
BLOCK
5
77
330
76
100
AcDbEntity
8
0
100
AcDbBlockBegin
2
_DATUMBLANK
70
0
10
0
20
0
3
_DATUMBLANK
1

0
LINE
5
A7
100
AcDbEntity
8
0
6
ByLayer
62
256
370
-1
100
AcDbLine
10
0
20
0.57735
11
-1
21
0
0
LINE
5
A8
100
AcDbEntity
8
0
6
ByLayer
62
256
370
-1
100
AcDbLine
10
-1
20
0
11
0
21
-0.57735
0
LINE
5
A9
100
AcDbEntity
8
0
6
ByLayer
62
256
370
-1
100
AcDbLine
10
0
20
-0.57735
11
0
21
0.57735
0
ENDBLK
5
78
330
76
100
AcDbEntity
8
0
100
AcDbBlockEnd
0
BLOCK
5
7A
330
79
100
AcDbEntity
8
0
100
AcDbBlockBegin
2
_DATUMFILLED
70
0
10
0
20
0
3
_DATUMFILLED
1

0
SOLID
5
AA
100
AcDbEntity
8
0
6
ByLayer
62
256
370
-1
100
AcDbTrace
10
0
20
0.57735
30
0
11
-1
21
0
31
0
12
0
22
-0.57735
32
0
13
0
23
-0.57735
33
0
0
ENDBLK
5
7B
330
79
100
AcDbEntity
8
0
100
AcDbBlockEnd
0
BLOCK
5
7D
330
7C
100
AcDbEntity
8
0
100
AcDbBlockBegin
2
_INTEGRAL
70
0
10
0
20
0
3
_INTEGRAL
1

0
ARC
5
AB
100
AcDbEntity
8
0
6
ByLayer
62
256
370
-1
100
AcDbCircle
10
0.444888
20
-0.091335
40
0.454167
100
AcDbArc
50
102
51
168
0
ARC
5
AC
100
AcDbEntity
8
0
6
ByLayer
62
256
370
-1
100
AcDbCircle
10
-0.444888
20
0.091335
40
0.454167
100
AcDbArc
50
282
51
348
0
ENDBLK
5
7E
330
7C
100
AcDbEntity
8
0
100
AcDbBlockEnd
0
BLOCK
5
80
330
7F
100
AcDbEntity
8
0
100
AcDbBlockBegin
2
_NONE
70
0
10
0
20
0
3
_NONE
1

0
ENDBLK
5
81
330
7F
100
AcDbEntity
8
0
100
AcDbBlockEnd
0
ENDSEC
0
SECTION
2
ENTITIES
0
CIRCLE
5
AD
100
AcDbEntity
8
0
6
CONTINUOUS
62
256
370
-1
100
AcDbCircle
10
56.5
20
6
40
1.55
0
CIRCLE
5
AE
100
AcDbEntity
8
0
6
CONTINUOUS
62
256
370
-1
100
AcDbCircle
10
56.5
20
36
40
1.55
0
CIRCLE
5
AF
100
AcDbEntity
8
0
6
CONTINUOUS
62
256
370
-1
100
AcDbCircle
10
22.5
20
68
40
1.55
0
CIRCLE
5
B0
100
AcDbEntity
8
0
6
CONTINUOUS
62
256
370
-1
100
AcDbCircle
10
77.5
20
68
40
1.55
0
CIRCLE
5
B1
100
AcDbEntity
8
0
6
CONTINUOUS
62
256
370
-1
100
AcDbCircle
10
43.5
20
6
40
1.55
0
CIRCLE
5
B2
100
AcDbEntity
8
0
6
CONTINUOUS
62
256
370
-1
100
AcDbCircle
10
43.5
20
36
40
1.55
0
LWPOLYLINE
5
B3
100
AcDbEntity
8
0
6
CONTINUOUS
62
256
370
-1
100
AcDbPolyline
90
259
70
0
43
0
10
0
20
75
10
1.258344
20
73.999713
10
2.48632
20
72.987728
10
3.684298
20
71.964574
10
4.852647
20
70.930775
10
5.991735
20
69.886861
10
7.101932
20
68.833356
10
8.183608
20
67.770788
10
9.237131
20
66.699685
10
10.407158
20
65.46579
10
11.541448
20
64.22222
10
12.640552
20
62.969763
10
13.705021
20
61.709204
10
14.735405
20
60.441329
10
15.732257
20
59.166926
10
16.696126
20
57.886781
10
17.627565
20
56.601679
10
18.527125
20
55.312409
10
19.161641
20
54.372588
10
19.779798
20
53.431279
10
20.38181
20
52.488787
10
20.967886
20
51.545413
10
21.53824
20
50.60146
10
22.093084
20
49.65723
10
22.632629
20
48.713026
10
23.157088
20
47.76915
10
24.161594
20
45.883593
10
24.826188
20
44.574672
10
25.463381
20
43.268959
10
26.073743
20
41.967267
10
26.657846
20
40.670412
10
27.21626
20
39.379208
10
27.749557
20
38.094471
10
28.258307
20
36.817015
10
28.743082
20
35.547654
10
29.204452
20
34.287203
10
29.808497
20
32.549888
10
30.36988
20
30.833592
10
30.890139
20
29.14051
10
31.37081
20
27.472837
10
31.813432
20
25.832766
10
32.219542
20
24.222491
10
32.590678
20
22.644208
10
32.928378
20
21.10011
10
33.234179
20
19.592392
10
33.557417
20
17.855592
10
33.703844
20
17.008652
10
33.840569
20
16.176629
10
33.967911
20
15.359977
10
34.086192
20
14.559155
10
34.195731
20
13.774618
10
34.296848
20
13.006824
10
34.389864
20
12.256228
10
34.475097
20
11.523288
10
34.564906
20
10.693244
10
34.645115
20
9.888444
10
34.716229
20
9.109608
10
34.778752
20
8.357455
10
34.833187
20
7.632704
10
34.880039
20
6.936076
10
34.919813
20
6.268289
10
34.953012
20
5.630063
10
34.98014
20
5.022118
10
35.004735
20
4.353765
10
35.022588
20
3.72852
10
35.034492
20
3.147518
10
35.041242
20
2.611893
10
35.043633
20
2.122778
10
35.042458
20
1.681306
10
35.038513
20
1.288611
10
35.032592
20
0.945828
10
35.025488
20
0.654088
10
35.021457
20
0.518692
10
35.017437
20
0.398563
10
35.013552
20
0.29388
10
35.009926
20
0.204818
10
35.006682
20
0.131554
10
35.003944
20
0.074264
10
35.001835
20
0.033124
10
35.000479
20
0.00831
10
35
20
0
10
65
20
0
10
64.999521
20
0.00831
10
64.998165
20
0.033124
10
64.996056
20
0.074264
10
64.993318
20
0.131554
10
64.990074
20
0.204818
10
64.986448
20
0.29388
10
64.982563
20
0.398563
10
64.978543
20
0.518692
10
64.974512
20
0.654088
10
64.967408
20
0.945828
10
64.961487
20
1.288611
10
64.957542
20
1.681306
10
64.956367
20
2.122778
10
64.958758
20
2.611893
10
64.965508
20
3.147518
10
64.977412
20
3.72852
10
64.995265
20
4.353765
10
65.01986
20
5.022118
10
65.046988
20
5.630063
10
65.080187
20
6.268289
10
65.119961
20
6.936076
10
65.166813
20
7.632704
10
65.221248
20
8.357455
10
65.283771
20
9.109608
10
65.354885
20
9.888444
10
65.435094
20
10.693244
10
65.524903
20
11.523288
10
65.610136
20
12.256228
10
65.703152
20
13.006824
10
65.804269
20
13.774618
10
65.913808
20
14.559155
10
66.032089
20
15.359977
10
66.159431
20
16.176629
10
66.296156
20
17.008652
10
66.442583
20
17.855592
10
66.765821
20
19.592392
10
67.071622
20
21.10011
10
67.409322
20
22.644208
10
67.780458
20
24.222491
10
68.186568
20
25.832766
10
68.62919
20
27.472837
10
69.109861
20
29.14051
10
69.63012
20
30.833592
10
70.191503
20
32.549888
10
70.795548
20
34.287203
10
71.256918
20
35.547654
10
71.741693
20
36.817015
10
72.250443
20
38.094471
10
72.78374
20
39.379208
10
73.342154
20
40.670412
10
73.926257
20
41.967267
10
74.536619
20
43.268959
10
75.173812
20
44.574672
10
75.838406
20
45.883593
10
76.842912
20
47.76915
10
77.367371
20
48.713026
10
77.906916
20
49.65723
10
78.46176
20
50.60146
10
79.032114
20
51.545413
10
79.61819
20
52.488787
10
80.220202
20
53.431279
10
80.838359
20
54.372588
10
81.472875
20
55.312409
10
82.372435
20
56.601679
10
83.303874
20
57.886781
10
84.267743
20
59.166926
10
85.264595
20
60.441329
10
86.294979
20
61.709204
10
87.359448
20
62.969763
10
88.458552
20
64.22222
10
89.592842
20
65.46579
10
90.762869
20
66.699685
10
91.816392
20
67.770788
10
92.898068
20
68.833356
10
94.008265
20
69.886861
10
95.147353
20
70.930775
10
96.315702
20
71.964574
10
97.51368
20
72.987728
10
98.741656
20
73.999713
10
100
20
75
10
100
20
95
10
85
20
85
10
84.40025
20
84.605145
10
83.814962
20
84.247925
10
83.244004
20
83.927402
10
82.687243
20
83.642637
10
82.144545
20
83.392691
10
81.615778
20
83.176627
10
81.100808
20
82.993504
10
80.599503
20
82.842385
10
80.043143
20
82.707662
10
79.504258
20
82.612113
10
78.982649
20
82.554337
10
78.478118
20
82.532933
10
77.990466
20
82.546499
10
77.519493
20
82.593635
10
77.065002
20
82.67294
10
76.626794
20
82.783012
10
76.20467
20
82.922451
10
75.878417
20
83.054205
10
75.56223
20
83.203139
10
75.256006
20
83.368537
10
74.959643
20
83.549681
10
74.673041
20
83.745853
10
74.396096
20
83.956337
10
73.870775
20
84.417369
10
73.382865
20
84.927039
10
72.931553
20
85.479608
10
72.638751
20
85.886263
10
72.362993
20
86.30897
10
72.104004
20
86.745796
10
71.86151
20
87.19481
10
71.635238
20
87.654079
10
71.424913
20
88.121671
10
71.230262
20
88.595655
10
71.05101
20
89.074099
10
70.886885
20
89.555071
10
70.683183
20
90.224821
10
70.507492
20
90.890522
10
70.359075
20
91.546971
10
70.237193
20
92.188965
10
70.141109
20
92.8113
10
70.070086
20
93.408774
10
70.023385
20
93.976184
10
70.000269
20
94.508327
10
70
20
95
10
70
20
125.001
42
0.414096
10
65.001
20
130
10
34.999
20
130
42
0.414096
10
30
20
125.001
10
30
20
95
10
29.999731
20
94.508327
10
29.976615
20
93.976184
10
29.929914
20
93.408774
10
29.858891
20
92.8113
10
29.762807
20
92.188965
10
29.640925
20
91.546971
10
29.492508
20
90.890522
10
29.316817
20
90.224821
10
29.113115
20
89.555071
10
28.94899
20
89.074099
10
28.769738
20
88.595655
10
28.575087
20
88.121671
10
28.364762
20
87.654079
10
28.13849
20
87.19481
10
27.895996
20
86.745796
10
27.637007
20
86.30897
10
27.361249
20
85.886263
10
27.068447
20
85.479608
10
26.617135
20
84.927039
10
26.129225
20
84.417369
10
25.603904
20
83.956337
10
25.326959
20
83.745853
10
25.040357
20
83.549681
10
24.743994
20
83.368537
10
24.43777
20
83.203139
10
24.121583
20
83.054205
10
23.79533
20
82.922451
10
23.373206
20
82.783012
10
22.934998
20
82.67294
10
22.480507
20
82.593635
10
22.009534
20
82.546499
10
21.521882
20
82.532933
10
21.017351
20
82.554337
10
20.495742
20
82.612113
10
19.956857
20
82.707662
10
19.400497
20
82.842385
10
18.899192
20
82.993504
10
18.384222
20
83.176627
10
17.855455
20
83.392691
10
17.312757
20
83.642637
10
16.755996
20
83.927402
10
16.185038
20
84.247925
10
15.59975
20
84.605145
10
15
20
85
10
0
20
95
10
0
20
75
0
CIRCLE
5
B4
100
AcDbEntity
8
0
6
CONTINUOUS
62
256
370
-1
100
AcDbCircle
10
94
20
85
40
1.55
0
CIRCLE
5
B5
100
AcDbEntity
8
0
6
CONTINUOUS
62
256
370
-1
100
AcDbCircle
10
6
20
85
40
1.55
0
CIRCLE
5
B6
100
AcDbEntity
8
0
6
CONTINUOUS
62
256
370
-1
100
AcDbCircle
10
35
20
116
40
1.55
0
CIRCLE
5
B7
100
AcDbEntity
8
0
6
CONTINUOUS
62
256
370
-1
100
AcDbCircle
10
65
20
116
40
1.55
0
ENDSEC
0
SECTION
2
OBJECTS
0
DICTIONARY
5
C
330
0
100
AcDbDictionary
281
1
3
ACAD_GROUP
350
D
0
DICTIONARY
5
D
330
C
100
AcDbDictionary
281
1
0
ENDSEC
0
EOF
